# xmcd
#
# Track frame offsets: 
#        150
#        19055
#        33488
#        144261
#        162093
#        180880
#        200092
#        222564
#        258619
#
# Disc length: 4216 seconds
#
# Revision: 1
# Processed by: cddbd v1.5.2PL0 Copyright (c) Steve Scherf et al.
# Submitted via: ExactAudioCopyFreeDBPlugin 1.0
#
DISCID=7c107609
DTITLE=Fleetwood Mac - 1970 [R2003] - Live In Boston Vol.2
DYEAR=1970
DGENRE=
TTITLE0=World In Harmony
TTITLE1=Oh Well
TTITLE2=Rattlesnake Shake
TTITLE3=Stranger Blues
TTITLE4=Red Hot Mama
TTITLE5=Teenage Darling
TTITLE6=Keep A-Knocking
TTITLE7=Jenny Jenny
TTITLE8=Encore Jam
EXTD=
EXTT0=
EXTT1=
EXTT2=
EXTT3=
EXTT4=
EXTT5=
EXTT6=
EXTT7=
EXTT8=
PLAYORDER=
